<svg width="48" height="49" viewBox="0 0 48 49" fill="none" xmlns="http://www.w3.org/2000/svg">
<path fill-rule="evenodd" clip-rule="evenodd" d="M41.46 14.3728L41.18 13.8728C40.8188 13.2682 40.3094 12.7657 39.7 12.4128L26.28 4.67281C25.6724 4.32031 24.9826 4.13405 24.28 4.13281H23.7C22.9974 4.13405 22.3076 4.32031 21.7 4.67281L8.28 12.4328C7.67394 12.7833 7.17052 13.2868 6.82 13.8928L6.54 14.3928C6.1875 15.0005 6.00124 15.6903 6 16.3928V31.8928C6.00124 32.5954 6.1875 33.2852 6.54 33.8928L6.82 34.3928C7.17958 34.9918 7.68098 35.4932 8.28 35.8528L21.72 43.5928C22.3246 43.9526 23.0164 44.1394 23.72 44.1328H24.28C24.9826 44.1316 25.6724 43.9454 26.28 43.5928L39.7 35.8328C40.312 35.4902 40.8174 34.9848 41.16 34.3728L41.46 33.8728C41.8082 33.2634 41.9942 32.5748 42 31.8728V16.3728C41.9988 15.6703 41.8126 14.9805 41.46 14.3728ZM23.7 8.13281H24.28L36 14.8928L24 21.8128L12 14.8928L23.7 8.13281ZM26 39.1328L37.7 32.3728L38 31.8728V18.3528L26 25.2928V39.1328Z" fill="black"/>
</svg>
