<svg width="140" height="57" viewBox="0 0 140 57" fill="none" xmlns="http://www.w3.org/2000/svg">
<path fill-rule="evenodd" clip-rule="evenodd" d="M38.5702 16.7734L27.0607 39.2734H16.25L21.0667 29.9484H20.8506C16.8769 35.1069 10.9479 38.5028 2.5 39.2734V30.0776C2.5 30.0776 7.90431 29.7583 11.0814 26.4181H2.5V16.7736H12.1445V24.7061L12.361 24.7052L16.3021 16.7736H23.596V24.6558L23.8124 24.6554L27.9014 16.7734H38.5702ZM101.333 36.7899H104.439V18.9609H101.333V36.7899ZM84.2092 36.6079C84.8842 36.8885 85.5707 37.0289 86.2686 37.0289C87.4214 37.0289 88.4531 36.7483 89.3633 36.1869C90.2734 35.6256 90.9789 34.852 91.4796 33.8659C91.9802 32.8723 92.2304 31.7458 92.2304 30.4866C92.2304 29.2275 91.9726 28.1011 91.4568 27.1075C90.9409 26.1138 90.2242 25.3439 89.3063 24.7978C88.3886 24.2441 87.3456 23.971 86.1774 23.9786C85.4342 23.9786 84.7212 24.1227 84.0384 24.411C83.3558 24.6992 82.7869 25.1088 82.3318 25.6398C82.2967 25.6802 82.2626 25.721 82.2294 25.7622V18.9724H79.1119V36.79H82.2067L82.2004 35.1255C82.2804 35.2236 82.3661 35.3195 82.4569 35.4133C82.9499 35.9215 83.5341 36.3196 84.2092 36.6079ZM87.3949 33.7294C86.8867 34.0404 86.3064 34.1959 85.6541 34.1959C85.0093 34.1959 84.4177 34.0365 83.8792 33.718C83.3406 33.3918 82.9121 32.9481 82.5934 32.3868C82.2824 31.8255 82.1269 31.1883 82.1269 30.4753C82.1194 29.7623 82.2711 29.1251 82.5821 28.5638C82.9007 27.995 83.3292 27.555 83.8678 27.244C84.4063 26.9254 85.0018 26.7699 85.6541 26.7775C86.3064 26.7699 86.8867 26.9216 87.3949 27.2326C87.9107 27.536 88.3051 27.9722 88.5782 28.5411C88.8588 29.1024 88.9992 29.7471 88.9992 30.4753C88.9992 31.2035 88.8588 31.8483 88.5782 32.4095C88.3051 32.9709 87.9107 33.4108 87.3949 33.7294ZM43.0701 20.0419H46.6199L49.7954 31.6389L53.1736 20.0419H56.1318L59.7954 31.4061L62.8447 20.0419H66.0987L61.2973 36.79H58.2367L54.5112 25.688L51.0914 36.79H47.9967L43.0701 20.0419ZM71.3413 37.0857C70.1048 37.0933 68.9898 36.8202 67.9962 36.2666C67.01 35.7052 66.2327 34.9277 65.6637 33.9341C65.1024 32.9405 64.8218 31.8065 64.8218 30.5321C64.8218 29.2957 65.11 28.1769 65.6865 27.1757C66.2629 26.1745 67.0441 25.3932 68.0303 24.8319C69.0164 24.2706 70.1162 23.9899 71.3298 23.9899C72.6952 23.9899 73.8898 24.2933 74.9138 24.9001C75.9454 25.507 76.7153 26.3679 77.2235 27.4829C77.7393 28.5903 77.9252 29.8608 77.781 31.2945H68.0352C68.0624 31.8656 68.2049 32.3852 68.4627 32.8532C68.7509 33.369 69.1529 33.771 69.6686 34.0592C70.1845 34.3475 70.7609 34.4916 71.3982 34.4916C71.8835 34.484 72.3349 34.4006 72.752 34.2413C73.1693 34.0745 73.5219 33.8507 73.8102 33.57C74.106 33.2893 74.3147 32.9708 74.436 32.6143H77.69C77.4928 33.4866 77.0984 34.2641 76.5068 34.9467C75.915 35.6218 75.1718 36.149 74.2766 36.5282C73.3816 36.9075 72.4032 37.0933 71.3413 37.0857ZM68.474 28.1656C68.2923 28.4825 68.1663 28.8238 68.0962 29.1896H74.5565C74.5097 28.7276 74.367 28.3066 74.1288 27.9266C73.8557 27.4791 73.484 27.134 73.0138 26.8913C72.5435 26.6409 72.0125 26.5158 71.4209 26.5158C70.7913 26.5158 70.2186 26.6599 69.7028 26.9481C69.187 27.2364 68.7774 27.6422 68.474 28.1656ZM94.5178 24.2516C94.5178 23.2352 94.749 22.3326 95.2118 21.5437C95.6744 20.7473 96.323 20.1291 97.1574 19.6892C97.9993 19.2416 98.9816 19.0103 100.104 18.9951V21.7599C99.5808 21.7675 99.1333 21.8775 98.7616 22.0899C98.3975 22.2947 98.1169 22.5943 97.9196 22.9887C97.7381 23.3518 97.6401 23.7728 97.6258 24.2516H100.036V26.8799H97.6239V36.79H94.5178V26.8799H92.5153V24.2516H94.5178ZM112.335 37.0629C111.068 37.0629 109.934 36.786 108.933 36.2324C107.939 35.671 107.158 34.8974 106.589 33.9113C106.028 32.9176 105.747 31.7913 105.747 30.532C105.747 29.2654 106.028 28.1352 106.589 27.1415C107.158 26.1403 107.939 25.3628 108.933 24.8091C109.934 24.2553 111.068 23.9785 112.335 23.9785C113.609 23.9785 114.747 24.2553 115.748 24.8091C116.757 25.3628 117.542 26.1365 118.103 27.1301C118.665 28.1238 118.949 29.2578 118.957 30.532C118.949 31.7913 118.665 32.9176 118.103 33.9113C117.55 34.8974 116.768 35.671 115.759 36.2324C114.751 36.786 113.609 37.0629 112.335 37.0629ZM112.335 34.2071C113.002 34.2071 113.594 34.0554 114.11 33.752C114.626 33.441 115.024 33.0086 115.304 32.4549C115.585 31.8936 115.725 31.2526 115.725 30.532C115.725 29.8039 115.585 29.1591 115.304 28.5979C115.024 28.0366 114.626 27.6042 114.11 27.3008C113.594 26.9898 113.002 26.8343 112.335 26.8343C111.675 26.8343 111.087 26.9898 110.571 27.3008C110.063 27.6042 109.669 28.0366 109.388 28.5979C109.107 29.1591 108.971 29.8039 108.978 30.532C108.978 31.2526 109.119 31.8936 109.399 32.4549C109.688 33.0086 110.082 33.441 110.583 33.752C111.091 34.0554 111.675 34.2071 112.335 34.2071ZM122.313 24.2516H118.854L122.598 36.79H125.624L128.086 28.7817L130.744 36.79H133.725L137.48 24.2516H134.351L132.221 32.056L129.867 24.2516H126.841L124.499 32.2278L122.313 24.2516Z" fill="black"/>
<path d="M38.5702 16.7734L27.0607 39.2734H16.25L21.0667 29.9484H20.8506C16.8769 35.1069 10.9479 38.5028 2.5 39.2734V30.0776C2.5 30.0776 7.90431 29.7583 11.0814 26.4181H2.5V16.7736H12.1445V24.7061L12.361 24.7052L16.3021 16.7736H23.596V24.6558L23.8124 24.6554L27.9014 16.7734H38.5702ZM101.333 36.7899H104.439V18.9609H101.333V36.7899ZM84.2092 36.6079C84.8842 36.8885 85.5707 37.0289 86.2686 37.0289C87.4214 37.0289 88.4531 36.7483 89.3633 36.1869C90.2734 35.6256 90.9789 34.852 91.4796 33.8659C91.9802 32.8723 92.2304 31.7458 92.2304 30.4866C92.2304 29.2275 91.9726 28.1011 91.4568 27.1075C90.9409 26.1138 90.2242 25.3439 89.3063 24.7978C88.3886 24.2441 87.3456 23.971 86.1774 23.9786C85.4342 23.9786 84.7212 24.1227 84.0384 24.411C83.3558 24.6992 82.7869 25.1088 82.3318 25.6398C82.2967 25.6802 82.2626 25.721 82.2294 25.7622V18.9724H79.1119V36.79H82.2067L82.2004 35.1255C82.2804 35.2236 82.3661 35.3195 82.4569 35.4133C82.9499 35.9215 83.5341 36.3196 84.2092 36.6079ZM87.3949 33.7294C86.8867 34.0404 86.3064 34.1959 85.6541 34.1959C85.0093 34.1959 84.4177 34.0365 83.8792 33.718C83.3406 33.3918 82.9121 32.9481 82.5934 32.3868C82.2824 31.8255 82.1269 31.1883 82.1269 30.4753C82.1194 29.7623 82.2711 29.1251 82.5821 28.5638C82.9007 27.995 83.3292 27.555 83.8678 27.244C84.4063 26.9254 85.0018 26.7699 85.6541 26.7775C86.3064 26.7699 86.8867 26.9216 87.3949 27.2326C87.9107 27.536 88.3051 27.9722 88.5782 28.5411C88.8588 29.1024 88.9992 29.7471 88.9992 30.4753C88.9992 31.2035 88.8588 31.8483 88.5782 32.4095C88.3051 32.9709 87.9107 33.4108 87.3949 33.7294ZM43.0701 20.0419H46.6199L49.7954 31.6389L53.1736 20.0419H56.1318L59.7954 31.4061L62.8447 20.0419H66.0987L61.2973 36.79H58.2367L54.5112 25.688L51.0914 36.79H47.9967L43.0701 20.0419ZM71.3413 37.0857C70.1048 37.0933 68.9898 36.8202 67.9962 36.2666C67.01 35.7052 66.2327 34.9277 65.6637 33.9341C65.1024 32.9405 64.8218 31.8065 64.8218 30.5321C64.8218 29.2957 65.11 28.1769 65.6865 27.1757C66.2629 26.1745 67.0441 25.3932 68.0303 24.8319C69.0164 24.2706 70.1162 23.9899 71.3298 23.9899C72.6952 23.9899 73.8898 24.2933 74.9138 24.9001C75.9454 25.507 76.7153 26.3679 77.2235 27.4829C77.7393 28.5903 77.9252 29.8608 77.781 31.2945H68.0352C68.0624 31.8656 68.2049 32.3852 68.4627 32.8532C68.7509 33.369 69.1529 33.771 69.6686 34.0592C70.1845 34.3475 70.7609 34.4916 71.3982 34.4916C71.8835 34.484 72.3349 34.4006 72.752 34.2413C73.1693 34.0745 73.5219 33.8507 73.8102 33.57C74.106 33.2893 74.3147 32.9708 74.436 32.6143H77.69C77.4928 33.4866 77.0984 34.2641 76.5068 34.9467C75.915 35.6218 75.1718 36.149 74.2766 36.5282C73.3816 36.9075 72.4032 37.0933 71.3413 37.0857ZM68.474 28.1656C68.2923 28.4825 68.1663 28.8238 68.0962 29.1896H74.5565C74.5097 28.7276 74.367 28.3066 74.1288 27.9266C73.8557 27.4791 73.484 27.134 73.0138 26.8913C72.5435 26.6409 72.0125 26.5158 71.4209 26.5158C70.7913 26.5158 70.2186 26.6599 69.7028 26.9481C69.187 27.2364 68.7774 27.6422 68.474 28.1656ZM94.5178 24.2516C94.5178 23.2352 94.749 22.3326 95.2118 21.5437C95.6744 20.7473 96.323 20.1291 97.1574 19.6892C97.9993 19.2416 98.9816 19.0103 100.104 18.9951V21.7599C99.5808 21.7675 99.1333 21.8775 98.7616 22.0899C98.3975 22.2947 98.1169 22.5943 97.9196 22.9887C97.7381 23.3518 97.6401 23.7728 97.6258 24.2516H100.036V26.8799H97.6239V36.79H94.5178V26.8799H92.5153V24.2516H94.5178ZM112.335 37.0629C111.068 37.0629 109.934 36.786 108.933 36.2324C107.939 35.671 107.158 34.8974 106.589 33.9113C106.028 32.9176 105.747 31.7913 105.747 30.532C105.747 29.2654 106.028 28.1352 106.589 27.1415C107.158 26.1403 107.939 25.3628 108.933 24.8091C109.934 24.2553 111.068 23.9785 112.335 23.9785C113.609 23.9785 114.747 24.2553 115.748 24.8091C116.757 25.3628 117.542 26.1365 118.103 27.1301C118.665 28.1238 118.949 29.2578 118.957 30.532C118.949 31.7913 118.665 32.9176 118.103 33.9113C117.55 34.8974 116.768 35.671 115.759 36.2324C114.751 36.786 113.609 37.0629 112.335 37.0629ZM112.335 34.2071C113.002 34.2071 113.594 34.0554 114.11 33.752C114.626 33.441 115.024 33.0086 115.304 32.4549C115.585 31.8936 115.725 31.2526 115.725 30.532C115.725 29.8039 115.585 29.1591 115.304 28.5979C115.024 28.0366 114.626 27.6042 114.11 27.3008C113.594 26.9898 113.002 26.8343 112.335 26.8343C111.675 26.8343 111.087 26.9898 110.571 27.3008C110.063 27.6042 109.669 28.0366 109.388 28.5979C109.107 29.1591 108.971 29.8039 108.978 30.532C108.978 31.2526 109.119 31.8936 109.399 32.4549C109.688 33.0086 110.082 33.441 110.583 33.752C111.091 34.0554 111.675 34.2071 112.335 34.2071ZM122.313 24.2516H118.854L122.598 36.79H125.624L128.086 28.7817L130.744 36.79H133.725L137.48 24.2516H134.351L132.221 32.056L129.867 24.2516H126.841L124.499 32.2278L122.313 24.2516Z" fill="black"/>
<path fill-rule="evenodd" clip-rule="evenodd" d="M38.5702 16.7734L27.0607 39.2734H16.25L21.0667 29.9484H20.8506C16.8769 35.1069 10.9479 38.5028 2.5 39.2734V30.0776C2.5 30.0776 7.90431 29.7583 11.0814 26.4181H2.5V16.7736H12.1445V24.7061L12.361 24.7052L16.3021 16.7736H23.596V24.6558L23.8124 24.6554L27.9014 16.7734H38.5702ZM101.333 36.7899H104.439V18.9609H101.333V36.7899ZM84.2092 36.6079C84.8842 36.8885 85.5707 37.0289 86.2686 37.0289C87.4214 37.0289 88.4531 36.7483 89.3633 36.1869C90.2734 35.6256 90.9789 34.852 91.4796 33.8659C91.9802 32.8723 92.2304 31.7458 92.2304 30.4866C92.2304 29.2275 91.9726 28.1011 91.4568 27.1075C90.9409 26.1138 90.2242 25.3439 89.3063 24.7978C88.3886 24.2441 87.3456 23.971 86.1774 23.9786C85.4342 23.9786 84.7212 24.1227 84.0384 24.411C83.3558 24.6992 82.7869 25.1088 82.3318 25.6398C82.2967 25.6802 82.2626 25.721 82.2294 25.7622V18.9724H79.1119V36.79H82.2067L82.2004 35.1255C82.2804 35.2236 82.3661 35.3195 82.4569 35.4133C82.9499 35.9215 83.5341 36.3196 84.2092 36.6079ZM87.3949 33.7294C86.8867 34.0404 86.3064 34.1959 85.6541 34.1959C85.0093 34.1959 84.4177 34.0365 83.8792 33.718C83.3406 33.3918 82.9121 32.9481 82.5934 32.3868C82.2824 31.8255 82.1269 31.1883 82.1269 30.4753C82.1194 29.7623 82.2711 29.1251 82.5821 28.5638C82.9007 27.995 83.3292 27.555 83.8678 27.244C84.4063 26.9254 85.0018 26.7699 85.6541 26.7775C86.3064 26.7699 86.8867 26.9216 87.3949 27.2326C87.9107 27.536 88.3051 27.9722 88.5782 28.5411C88.8588 29.1024 88.9992 29.7471 88.9992 30.4753C88.9992 31.2035 88.8588 31.8483 88.5782 32.4095C88.3051 32.9709 87.9107 33.4108 87.3949 33.7294ZM43.0701 20.0419H46.6199L49.7954 31.6389L53.1736 20.0419H56.1318L59.7954 31.4061L62.8447 20.0419H66.0987L61.2973 36.79H58.2367L54.5112 25.688L51.0914 36.79H47.9967L43.0701 20.0419ZM71.3413 37.0857C70.1048 37.0933 68.9898 36.8202 67.9962 36.2666C67.01 35.7052 66.2327 34.9277 65.6637 33.9341C65.1024 32.9405 64.8218 31.8065 64.8218 30.5321C64.8218 29.2957 65.11 28.1769 65.6865 27.1757C66.2629 26.1745 67.0441 25.3932 68.0303 24.8319C69.0164 24.2706 70.1162 23.9899 71.3298 23.9899C72.6952 23.9899 73.8898 24.2933 74.9138 24.9001C75.9454 25.507 76.7153 26.3679 77.2235 27.4829C77.7393 28.5903 77.9252 29.8608 77.781 31.2945H68.0352C68.0624 31.8656 68.2049 32.3852 68.4627 32.8532C68.7509 33.369 69.1529 33.771 69.6686 34.0592C70.1845 34.3475 70.7609 34.4916 71.3982 34.4916C71.8835 34.484 72.3349 34.4006 72.752 34.2413C73.1693 34.0745 73.5219 33.8507 73.8102 33.57C74.106 33.2893 74.3147 32.9708 74.436 32.6143H77.69C77.4928 33.4866 77.0984 34.2641 76.5068 34.9467C75.915 35.6218 75.1718 36.149 74.2766 36.5282C73.3816 36.9075 72.4032 37.0933 71.3413 37.0857ZM68.474 28.1656C68.2923 28.4825 68.1663 28.8238 68.0962 29.1896H74.5565C74.5097 28.7276 74.367 28.3066 74.1288 27.9266C73.8557 27.4791 73.484 27.134 73.0138 26.8913C72.5435 26.6409 72.0125 26.5158 71.4209 26.5158C70.7913 26.5158 70.2186 26.6599 69.7028 26.9481C69.187 27.2364 68.7774 27.6422 68.474 28.1656ZM94.5178 24.2516C94.5178 23.2352 94.749 22.3326 95.2118 21.5437C95.6744 20.7473 96.323 20.1291 97.1574 19.6892C97.9993 19.2416 98.9816 19.0103 100.104 18.9951V21.7599C99.5808 21.7675 99.1333 21.8775 98.7616 22.0899C98.3975 22.2947 98.1169 22.5943 97.9196 22.9887C97.7381 23.3518 97.6401 23.7728 97.6258 24.2516H100.036V26.8799H97.6239V36.79H94.5178V26.8799H92.5153V24.2516H94.5178ZM112.335 37.0629C111.068 37.0629 109.934 36.786 108.933 36.2324C107.939 35.671 107.158 34.8974 106.589 33.9113C106.028 32.9176 105.747 31.7913 105.747 30.532C105.747 29.2654 106.028 28.1352 106.589 27.1415C107.158 26.1403 107.939 25.3628 108.933 24.8091C109.934 24.2553 111.068 23.9785 112.335 23.9785C113.609 23.9785 114.747 24.2553 115.748 24.8091C116.757 25.3628 117.542 26.1365 118.103 27.1301C118.665 28.1238 118.949 29.2578 118.957 30.532C118.949 31.7913 118.665 32.9176 118.103 33.9113C117.55 34.8974 116.768 35.671 115.759 36.2324C114.751 36.786 113.609 37.0629 112.335 37.0629ZM112.335 34.2071C113.002 34.2071 113.594 34.0554 114.11 33.752C114.626 33.441 115.024 33.0086 115.304 32.4549C115.585 31.8936 115.725 31.2526 115.725 30.532C115.725 29.8039 115.585 29.1591 115.304 28.5979C115.024 28.0366 114.626 27.6042 114.11 27.3008C113.594 26.9898 113.002 26.8343 112.335 26.8343C111.675 26.8343 111.087 26.9898 110.571 27.3008C110.063 27.6042 109.669 28.0366 109.388 28.5979C109.107 29.1591 108.971 29.8039 108.978 30.532C108.978 31.2526 109.119 31.8936 109.399 32.4549C109.688 33.0086 110.082 33.441 110.583 33.752C111.091 34.0554 111.675 34.2071 112.335 34.2071ZM122.313 24.2516H118.854L122.598 36.79H125.624L128.086 28.7817L130.744 36.79H133.725L137.48 24.2516H134.351L132.221 32.056L129.867 24.2516H126.841L124.499 32.2278L122.313 24.2516Z" fill="black"/>
<path d="M38.5702 16.7734L27.0607 39.2734H16.25L21.0667 29.9484H20.8506C16.8769 35.1069 10.9479 38.5028 2.5 39.2734V30.0776C2.5 30.0776 7.90431 29.7583 11.0814 26.4181H2.5V16.7736H12.1445V24.7061L12.361 24.7052L16.3021 16.7736H23.596V24.6558L23.8124 24.6554L27.9014 16.7734H38.5702ZM101.333 36.7899H104.439V18.9609H101.333V36.7899ZM84.2092 36.6079C84.8842 36.8885 85.5707 37.0289 86.2686 37.0289C87.4214 37.0289 88.4531 36.7483 89.3633 36.1869C90.2734 35.6256 90.9789 34.852 91.4796 33.8659C91.9802 32.8723 92.2304 31.7458 92.2304 30.4866C92.2304 29.2275 91.9726 28.1011 91.4568 27.1075C90.9409 26.1138 90.2242 25.3439 89.3063 24.7978C88.3886 24.2441 87.3456 23.971 86.1774 23.9786C85.4342 23.9786 84.7212 24.1227 84.0384 24.411C83.3558 24.6992 82.7869 25.1088 82.3318 25.6398C82.2967 25.6802 82.2626 25.721 82.2294 25.7622V18.9724H79.1119V36.79H82.2067L82.2004 35.1255C82.2804 35.2236 82.3661 35.3195 82.4569 35.4133C82.9499 35.9215 83.5341 36.3196 84.2092 36.6079ZM87.3949 33.7294C86.8867 34.0404 86.3064 34.1959 85.6541 34.1959C85.0093 34.1959 84.4177 34.0365 83.8792 33.718C83.3406 33.3918 82.9121 32.9481 82.5934 32.3868C82.2824 31.8255 82.1269 31.1883 82.1269 30.4753C82.1194 29.7623 82.2711 29.1251 82.5821 28.5638C82.9007 27.995 83.3292 27.555 83.8678 27.244C84.4063 26.9254 85.0018 26.7699 85.6541 26.7775C86.3064 26.7699 86.8867 26.9216 87.3949 27.2326C87.9107 27.536 88.3051 27.9722 88.5782 28.5411C88.8588 29.1024 88.9992 29.7471 88.9992 30.4753C88.9992 31.2035 88.8588 31.8483 88.5782 32.4095C88.3051 32.9709 87.9107 33.4108 87.3949 33.7294ZM43.0701 20.0419H46.6199L49.7954 31.6389L53.1736 20.0419H56.1318L59.7954 31.4061L62.8447 20.0419H66.0987L61.2973 36.79H58.2367L54.5112 25.688L51.0914 36.79H47.9967L43.0701 20.0419ZM71.3413 37.0857C70.1048 37.0933 68.9898 36.8202 67.9962 36.2666C67.01 35.7052 66.2327 34.9277 65.6637 33.9341C65.1024 32.9405 64.8218 31.8065 64.8218 30.5321C64.8218 29.2957 65.11 28.1769 65.6865 27.1757C66.2629 26.1745 67.0441 25.3932 68.0303 24.8319C69.0164 24.2706 70.1162 23.9899 71.3298 23.9899C72.6952 23.9899 73.8898 24.2933 74.9138 24.9001C75.9454 25.507 76.7153 26.3679 77.2235 27.4829C77.7393 28.5903 77.9252 29.8608 77.781 31.2945H68.0352C68.0624 31.8656 68.2049 32.3852 68.4627 32.8532C68.7509 33.369 69.1529 33.771 69.6686 34.0592C70.1845 34.3475 70.7609 34.4916 71.3982 34.4916C71.8835 34.484 72.3349 34.4006 72.752 34.2413C73.1693 34.0745 73.5219 33.8507 73.8102 33.57C74.106 33.2893 74.3147 32.9708 74.436 32.6143H77.69C77.4928 33.4866 77.0984 34.2641 76.5068 34.9467C75.915 35.6218 75.1718 36.149 74.2766 36.5282C73.3816 36.9075 72.4032 37.0933 71.3413 37.0857ZM68.474 28.1656C68.2923 28.4825 68.1663 28.8238 68.0962 29.1896H74.5565C74.5097 28.7276 74.367 28.3066 74.1288 27.9266C73.8557 27.4791 73.484 27.134 73.0138 26.8913C72.5435 26.6409 72.0125 26.5158 71.4209 26.5158C70.7913 26.5158 70.2186 26.6599 69.7028 26.9481C69.187 27.2364 68.7774 27.6422 68.474 28.1656ZM94.5178 24.2516C94.5178 23.2352 94.749 22.3326 95.2118 21.5437C95.6744 20.7473 96.323 20.1291 97.1574 19.6892C97.9993 19.2416 98.9816 19.0103 100.104 18.9951V21.7599C99.5808 21.7675 99.1333 21.8775 98.7616 22.0899C98.3975 22.2947 98.1169 22.5943 97.9196 22.9887C97.7381 23.3518 97.6401 23.7728 97.6258 24.2516H100.036V26.8799H97.6239V36.79H94.5178V26.8799H92.5153V24.2516H94.5178ZM112.335 37.0629C111.068 37.0629 109.934 36.786 108.933 36.2324C107.939 35.671 107.158 34.8974 106.589 33.9113C106.028 32.9176 105.747 31.7913 105.747 30.532C105.747 29.2654 106.028 28.1352 106.589 27.1415C107.158 26.1403 107.939 25.3628 108.933 24.8091C109.934 24.2553 111.068 23.9785 112.335 23.9785C113.609 23.9785 114.747 24.2553 115.748 24.8091C116.757 25.3628 117.542 26.1365 118.103 27.1301C118.665 28.1238 118.949 29.2578 118.957 30.532C118.949 31.7913 118.665 32.9176 118.103 33.9113C117.55 34.8974 116.768 35.671 115.759 36.2324C114.751 36.786 113.609 37.0629 112.335 37.0629ZM112.335 34.2071C113.002 34.2071 113.594 34.0554 114.11 33.752C114.626 33.441 115.024 33.0086 115.304 32.4549C115.585 31.8936 115.725 31.2526 115.725 30.532C115.725 29.8039 115.585 29.1591 115.304 28.5979C115.024 28.0366 114.626 27.6042 114.11 27.3008C113.594 26.9898 113.002 26.8343 112.335 26.8343C111.675 26.8343 111.087 26.9898 110.571 27.3008C110.063 27.6042 109.669 28.0366 109.388 28.5979C109.107 29.1591 108.971 29.8039 108.978 30.532C108.978 31.2526 109.119 31.8936 109.399 32.4549C109.688 33.0086 110.082 33.441 110.583 33.752C111.091 34.0554 111.675 34.2071 112.335 34.2071ZM122.313 24.2516H118.854L122.598 36.79H125.624L128.086 28.7817L130.744 36.79H133.725L137.48 24.2516H134.351L132.221 32.056L129.867 24.2516H126.841L124.499 32.2278L122.313 24.2516Z" fill="black"/>
<path fill-rule="evenodd" clip-rule="evenodd" d="M38.5702 16.7734L27.0607 39.2734H16.25L21.0667 29.9484H20.8506C16.8769 35.1069 10.9479 38.5028 2.5 39.2734V30.0776C2.5 30.0776 7.90431 29.7583 11.0814 26.4181H2.5V16.7736H12.1445V24.7061L12.361 24.7052L16.3021 16.7736H23.596V24.6558L23.8124 24.6554L27.9014 16.7734H38.5702ZM101.333 36.7899H104.439V18.9609H101.333V36.7899ZM84.2092 36.6079C84.8842 36.8885 85.5707 37.0289 86.2686 37.0289C87.4214 37.0289 88.4531 36.7483 89.3633 36.1869C90.2734 35.6256 90.9789 34.852 91.4796 33.8659C91.9802 32.8723 92.2304 31.7458 92.2304 30.4866C92.2304 29.2275 91.9726 28.1011 91.4568 27.1075C90.9409 26.1138 90.2242 25.3439 89.3063 24.7978C88.3886 24.2441 87.3456 23.971 86.1774 23.9786C85.4342 23.9786 84.7212 24.1227 84.0384 24.411C83.3558 24.6992 82.7869 25.1088 82.3318 25.6398C82.2967 25.6802 82.2626 25.721 82.2294 25.7622V18.9724H79.1119V36.79H82.2067L82.2004 35.1255C82.2804 35.2236 82.3661 35.3195 82.4569 35.4133C82.9499 35.9215 83.5341 36.3196 84.2092 36.6079ZM87.3949 33.7294C86.8867 34.0404 86.3064 34.1959 85.6541 34.1959C85.0093 34.1959 84.4177 34.0365 83.8792 33.718C83.3406 33.3918 82.9121 32.9481 82.5934 32.3868C82.2824 31.8255 82.1269 31.1883 82.1269 30.4753C82.1194 29.7623 82.2711 29.1251 82.5821 28.5638C82.9007 27.995 83.3292 27.555 83.8678 27.244C84.4063 26.9254 85.0018 26.7699 85.6541 26.7775C86.3064 26.7699 86.8867 26.9216 87.3949 27.2326C87.9107 27.536 88.3051 27.9722 88.5782 28.5411C88.8588 29.1024 88.9992 29.7471 88.9992 30.4753C88.9992 31.2035 88.8588 31.8483 88.5782 32.4095C88.3051 32.9709 87.9107 33.4108 87.3949 33.7294ZM43.0701 20.0419H46.6199L49.7954 31.6389L53.1736 20.0419H56.1318L59.7954 31.4061L62.8447 20.0419H66.0987L61.2973 36.79H58.2367L54.5112 25.688L51.0914 36.79H47.9967L43.0701 20.0419ZM71.3413 37.0857C70.1048 37.0933 68.9898 36.8202 67.9962 36.2666C67.01 35.7052 66.2327 34.9277 65.6637 33.9341C65.1024 32.9405 64.8218 31.8065 64.8218 30.5321C64.8218 29.2957 65.11 28.1769 65.6865 27.1757C66.2629 26.1745 67.0441 25.3932 68.0303 24.8319C69.0164 24.2706 70.1162 23.9899 71.3298 23.9899C72.6952 23.9899 73.8898 24.2933 74.9138 24.9001C75.9454 25.507 76.7153 26.3679 77.2235 27.4829C77.7393 28.5903 77.9252 29.8608 77.781 31.2945H68.0352C68.0624 31.8656 68.2049 32.3852 68.4627 32.8532C68.7509 33.369 69.1529 33.771 69.6686 34.0592C70.1845 34.3475 70.7609 34.4916 71.3982 34.4916C71.8835 34.484 72.3349 34.4006 72.752 34.2413C73.1693 34.0745 73.5219 33.8507 73.8102 33.57C74.106 33.2893 74.3147 32.9708 74.436 32.6143H77.69C77.4928 33.4866 77.0984 34.2641 76.5068 34.9467C75.915 35.6218 75.1718 36.149 74.2766 36.5282C73.3816 36.9075 72.4032 37.0933 71.3413 37.0857ZM68.474 28.1656C68.2923 28.4825 68.1663 28.8238 68.0962 29.1896H74.5565C74.5097 28.7276 74.367 28.3066 74.1288 27.9266C73.8557 27.4791 73.484 27.134 73.0138 26.8913C72.5435 26.6409 72.0125 26.5158 71.4209 26.5158C70.7913 26.5158 70.2186 26.6599 69.7028 26.9481C69.187 27.2364 68.7774 27.6422 68.474 28.1656ZM94.5178 24.2516C94.5178 23.2352 94.749 22.3326 95.2118 21.5437C95.6744 20.7473 96.323 20.1291 97.1574 19.6892C97.9993 19.2416 98.9816 19.0103 100.104 18.9951V21.7599C99.5808 21.7675 99.1333 21.8775 98.7616 22.0899C98.3975 22.2947 98.1169 22.5943 97.9196 22.9887C97.7381 23.3518 97.6401 23.7728 97.6258 24.2516H100.036V26.8799H97.6239V36.79H94.5178V26.8799H92.5153V24.2516H94.5178ZM112.335 37.0629C111.068 37.0629 109.934 36.786 108.933 36.2324C107.939 35.671 107.158 34.8974 106.589 33.9113C106.028 32.9176 105.747 31.7913 105.747 30.532C105.747 29.2654 106.028 28.1352 106.589 27.1415C107.158 26.1403 107.939 25.3628 108.933 24.8091C109.934 24.2553 111.068 23.9785 112.335 23.9785C113.609 23.9785 114.747 24.2553 115.748 24.8091C116.757 25.3628 117.542 26.1365 118.103 27.1301C118.665 28.1238 118.949 29.2578 118.957 30.532C118.949 31.7913 118.665 32.9176 118.103 33.9113C117.55 34.8974 116.768 35.671 115.759 36.2324C114.751 36.786 113.609 37.0629 112.335 37.0629ZM112.335 34.2071C113.002 34.2071 113.594 34.0554 114.11 33.752C114.626 33.441 115.024 33.0086 115.304 32.4549C115.585 31.8936 115.725 31.2526 115.725 30.532C115.725 29.8039 115.585 29.1591 115.304 28.5979C115.024 28.0366 114.626 27.6042 114.11 27.3008C113.594 26.9898 113.002 26.8343 112.335 26.8343C111.675 26.8343 111.087 26.9898 110.571 27.3008C110.063 27.6042 109.669 28.0366 109.388 28.5979C109.107 29.1591 108.971 29.8039 108.978 30.532C108.978 31.2526 109.119 31.8936 109.399 32.4549C109.688 33.0086 110.082 33.441 110.583 33.752C111.091 34.0554 111.675 34.2071 112.335 34.2071ZM122.313 24.2516H118.854L122.598 36.79H125.624L128.086 28.7817L130.744 36.79H133.725L137.48 24.2516H134.351L132.221 32.056L129.867 24.2516H126.841L124.499 32.2278L122.313 24.2516Z" fill="black"/>
<path d="M38.5702 16.7734L27.0607 39.2734H16.25L21.0667 29.9484H20.8506C16.8769 35.1069 10.9479 38.5028 2.5 39.2734V30.0776C2.5 30.0776 7.90431 29.7583 11.0814 26.4181H2.5V16.7736H12.1445V24.7061L12.361 24.7052L16.3021 16.7736H23.596V24.6558L23.8124 24.6554L27.9014 16.7734H38.5702ZM101.333 36.7899H104.439V18.9609H101.333V36.7899ZM84.2092 36.6079C84.8842 36.8885 85.5707 37.0289 86.2686 37.0289C87.4214 37.0289 88.4531 36.7483 89.3633 36.1869C90.2734 35.6256 90.9789 34.852 91.4796 33.8659C91.9802 32.8723 92.2304 31.7458 92.2304 30.4866C92.2304 29.2275 91.9726 28.1011 91.4568 27.1075C90.9409 26.1138 90.2242 25.3439 89.3063 24.7978C88.3886 24.2441 87.3456 23.971 86.1774 23.9786C85.4342 23.9786 84.7212 24.1227 84.0384 24.411C83.3558 24.6992 82.7869 25.1088 82.3318 25.6398C82.2967 25.6802 82.2626 25.721 82.2294 25.7622V18.9724H79.1119V36.79H82.2067L82.2004 35.1255C82.2804 35.2236 82.3661 35.3195 82.4569 35.4133C82.9499 35.9215 83.5341 36.3196 84.2092 36.6079ZM87.3949 33.7294C86.8867 34.0404 86.3064 34.1959 85.6541 34.1959C85.0093 34.1959 84.4177 34.0365 83.8792 33.718C83.3406 33.3918 82.9121 32.9481 82.5934 32.3868C82.2824 31.8255 82.1269 31.1883 82.1269 30.4753C82.1194 29.7623 82.2711 29.1251 82.5821 28.5638C82.9007 27.995 83.3292 27.555 83.8678 27.244C84.4063 26.9254 85.0018 26.7699 85.6541 26.7775C86.3064 26.7699 86.8867 26.9216 87.3949 27.2326C87.9107 27.536 88.3051 27.9722 88.5782 28.5411C88.8588 29.1024 88.9992 29.7471 88.9992 30.4753C88.9992 31.2035 88.8588 31.8483 88.5782 32.4095C88.3051 32.9709 87.9107 33.4108 87.3949 33.7294ZM43.0701 20.0419H46.6199L49.7954 31.6389L53.1736 20.0419H56.1318L59.7954 31.4061L62.8447 20.0419H66.0987L61.2973 36.79H58.2367L54.5112 25.688L51.0914 36.79H47.9967L43.0701 20.0419ZM71.3413 37.0857C70.1048 37.0933 68.9898 36.8202 67.9962 36.2666C67.01 35.7052 66.2327 34.9277 65.6637 33.9341C65.1024 32.9405 64.8218 31.8065 64.8218 30.5321C64.8218 29.2957 65.11 28.1769 65.6865 27.1757C66.2629 26.1745 67.0441 25.3932 68.0303 24.8319C69.0164 24.2706 70.1162 23.9899 71.3298 23.9899C72.6952 23.9899 73.8898 24.2933 74.9138 24.9001C75.9454 25.507 76.7153 26.3679 77.2235 27.4829C77.7393 28.5903 77.9252 29.8608 77.781 31.2945H68.0352C68.0624 31.8656 68.2049 32.3852 68.4627 32.8532C68.7509 33.369 69.1529 33.771 69.6686 34.0592C70.1845 34.3475 70.7609 34.4916 71.3982 34.4916C71.8835 34.484 72.3349 34.4006 72.752 34.2413C73.1693 34.0745 73.5219 33.8507 73.8102 33.57C74.106 33.2893 74.3147 32.9708 74.436 32.6143H77.69C77.4928 33.4866 77.0984 34.2641 76.5068 34.9467C75.915 35.6218 75.1718 36.149 74.2766 36.5282C73.3816 36.9075 72.4032 37.0933 71.3413 37.0857ZM68.474 28.1656C68.2923 28.4825 68.1663 28.8238 68.0962 29.1896H74.5565C74.5097 28.7276 74.367 28.3066 74.1288 27.9266C73.8557 27.4791 73.484 27.134 73.0138 26.8913C72.5435 26.6409 72.0125 26.5158 71.4209 26.5158C70.7913 26.5158 70.2186 26.6599 69.7028 26.9481C69.187 27.2364 68.7774 27.6422 68.474 28.1656ZM94.5178 24.2516C94.5178 23.2352 94.749 22.3326 95.2118 21.5437C95.6744 20.7473 96.323 20.1291 97.1574 19.6892C97.9993 19.2416 98.9816 19.0103 100.104 18.9951V21.7599C99.5808 21.7675 99.1333 21.8775 98.7616 22.0899C98.3975 22.2947 98.1169 22.5943 97.9196 22.9887C97.7381 23.3518 97.6401 23.7728 97.6258 24.2516H100.036V26.8799H97.6239V36.79H94.5178V26.8799H92.5153V24.2516H94.5178ZM112.335 37.0629C111.068 37.0629 109.934 36.786 108.933 36.2324C107.939 35.671 107.158 34.8974 106.589 33.9113C106.028 32.9176 105.747 31.7913 105.747 30.532C105.747 29.2654 106.028 28.1352 106.589 27.1415C107.158 26.1403 107.939 25.3628 108.933 24.8091C109.934 24.2553 111.068 23.9785 112.335 23.9785C113.609 23.9785 114.747 24.2553 115.748 24.8091C116.757 25.3628 117.542 26.1365 118.103 27.1301C118.665 28.1238 118.949 29.2578 118.957 30.532C118.949 31.7913 118.665 32.9176 118.103 33.9113C117.55 34.8974 116.768 35.671 115.759 36.2324C114.751 36.786 113.609 37.0629 112.335 37.0629ZM112.335 34.2071C113.002 34.2071 113.594 34.0554 114.11 33.752C114.626 33.441 115.024 33.0086 115.304 32.4549C115.585 31.8936 115.725 31.2526 115.725 30.532C115.725 29.8039 115.585 29.1591 115.304 28.5979C115.024 28.0366 114.626 27.6042 114.11 27.3008C113.594 26.9898 113.002 26.8343 112.335 26.8343C111.675 26.8343 111.087 26.9898 110.571 27.3008C110.063 27.6042 109.669 28.0366 109.388 28.5979C109.107 29.1591 108.971 29.8039 108.978 30.532C108.978 31.2526 109.119 31.8936 109.399 32.4549C109.688 33.0086 110.082 33.441 110.583 33.752C111.091 34.0554 111.675 34.2071 112.335 34.2071ZM122.313 24.2516H118.854L122.598 36.79H125.624L128.086 28.7817L130.744 36.79H133.725L137.48 24.2516H134.351L132.221 32.056L129.867 24.2516H126.841L124.499 32.2278L122.313 24.2516Z" fill="black"/>
<path fill-rule="evenodd" clip-rule="evenodd" d="M38.5702 16.7734L27.0607 39.2734H16.25L21.0667 29.9484H20.8506C16.8769 35.1069 10.9479 38.5028 2.5 39.2734V30.0776C2.5 30.0776 7.90431 29.7583 11.0814 26.4181H2.5V16.7736H12.1445V24.7061L12.361 24.7052L16.3021 16.7736H23.596V24.6558L23.8124 24.6554L27.9014 16.7734H38.5702ZM101.333 36.7899H104.439V18.9609H101.333V36.7899ZM84.2092 36.6079C84.8842 36.8885 85.5707 37.0289 86.2686 37.0289C87.4214 37.0289 88.4531 36.7483 89.3633 36.1869C90.2734 35.6256 90.9789 34.852 91.4796 33.8659C91.9802 32.8723 92.2304 31.7458 92.2304 30.4866C92.2304 29.2275 91.9726 28.1011 91.4568 27.1075C90.9409 26.1138 90.2242 25.3439 89.3063 24.7978C88.3886 24.2441 87.3456 23.971 86.1774 23.9786C85.4342 23.9786 84.7212 24.1227 84.0384 24.411C83.3558 24.6992 82.7869 25.1088 82.3318 25.6398C82.2967 25.6802 82.2626 25.721 82.2294 25.7622V18.9724H79.1119V36.79H82.2067L82.2004 35.1255C82.2804 35.2236 82.3661 35.3195 82.4569 35.4133C82.9499 35.9215 83.5341 36.3196 84.2092 36.6079ZM87.3949 33.7294C86.8867 34.0404 86.3064 34.1959 85.6541 34.1959C85.0093 34.1959 84.4177 34.0365 83.8792 33.718C83.3406 33.3918 82.9121 32.9481 82.5934 32.3868C82.2824 31.8255 82.1269 31.1883 82.1269 30.4753C82.1194 29.7623 82.2711 29.1251 82.5821 28.5638C82.9007 27.995 83.3292 27.555 83.8678 27.244C84.4063 26.9254 85.0018 26.7699 85.6541 26.7775C86.3064 26.7699 86.8867 26.9216 87.3949 27.2326C87.9107 27.536 88.3051 27.9722 88.5782 28.5411C88.8588 29.1024 88.9992 29.7471 88.9992 30.4753C88.9992 31.2035 88.8588 31.8483 88.5782 32.4095C88.3051 32.9709 87.9107 33.4108 87.3949 33.7294ZM43.0701 20.0419H46.6199L49.7954 31.6389L53.1736 20.0419H56.1318L59.7954 31.4061L62.8447 20.0419H66.0987L61.2973 36.79H58.2367L54.5112 25.688L51.0914 36.79H47.9967L43.0701 20.0419ZM71.3413 37.0857C70.1048 37.0933 68.9898 36.8202 67.9962 36.2666C67.01 35.7052 66.2327 34.9277 65.6637 33.9341C65.1024 32.9405 64.8218 31.8065 64.8218 30.5321C64.8218 29.2957 65.11 28.1769 65.6865 27.1757C66.2629 26.1745 67.0441 25.3932 68.0303 24.8319C69.0164 24.2706 70.1162 23.9899 71.3298 23.9899C72.6952 23.9899 73.8898 24.2933 74.9138 24.9001C75.9454 25.507 76.7153 26.3679 77.2235 27.4829C77.7393 28.5903 77.9252 29.8608 77.781 31.2945H68.0352C68.0624 31.8656 68.2049 32.3852 68.4627 32.8532C68.7509 33.369 69.1529 33.771 69.6686 34.0592C70.1845 34.3475 70.7609 34.4916 71.3982 34.4916C71.8835 34.484 72.3349 34.4006 72.752 34.2413C73.1693 34.0745 73.5219 33.8507 73.8102 33.57C74.106 33.2893 74.3147 32.9708 74.436 32.6143H77.69C77.4928 33.4866 77.0984 34.2641 76.5068 34.9467C75.915 35.6218 75.1718 36.149 74.2766 36.5282C73.3816 36.9075 72.4032 37.0933 71.3413 37.0857ZM68.474 28.1656C68.2923 28.4825 68.1663 28.8238 68.0962 29.1896H74.5565C74.5097 28.7276 74.367 28.3066 74.1288 27.9266C73.8557 27.4791 73.484 27.134 73.0138 26.8913C72.5435 26.6409 72.0125 26.5158 71.4209 26.5158C70.7913 26.5158 70.2186 26.6599 69.7028 26.9481C69.187 27.2364 68.7774 27.6422 68.474 28.1656ZM94.5178 24.2516C94.5178 23.2352 94.749 22.3326 95.2118 21.5437C95.6744 20.7473 96.323 20.1291 97.1574 19.6892C97.9993 19.2416 98.9816 19.0103 100.104 18.9951V21.7599C99.5808 21.7675 99.1333 21.8775 98.7616 22.0899C98.3975 22.2947 98.1169 22.5943 97.9196 22.9887C97.7381 23.3518 97.6401 23.7728 97.6258 24.2516H100.036V26.8799H97.6239V36.79H94.5178V26.8799H92.5153V24.2516H94.5178ZM112.335 37.0629C111.068 37.0629 109.934 36.786 108.933 36.2324C107.939 35.671 107.158 34.8974 106.589 33.9113C106.028 32.9176 105.747 31.7913 105.747 30.532C105.747 29.2654 106.028 28.1352 106.589 27.1415C107.158 26.1403 107.939 25.3628 108.933 24.8091C109.934 24.2553 111.068 23.9785 112.335 23.9785C113.609 23.9785 114.747 24.2553 115.748 24.8091C116.757 25.3628 117.542 26.1365 118.103 27.1301C118.665 28.1238 118.949 29.2578 118.957 30.532C118.949 31.7913 118.665 32.9176 118.103 33.9113C117.55 34.8974 116.768 35.671 115.759 36.2324C114.751 36.786 113.609 37.0629 112.335 37.0629ZM112.335 34.2071C113.002 34.2071 113.594 34.0554 114.11 33.752C114.626 33.441 115.024 33.0086 115.304 32.4549C115.585 31.8936 115.725 31.2526 115.725 30.532C115.725 29.8039 115.585 29.1591 115.304 28.5979C115.024 28.0366 114.626 27.6042 114.11 27.3008C113.594 26.9898 113.002 26.8343 112.335 26.8343C111.675 26.8343 111.087 26.9898 110.571 27.3008C110.063 27.6042 109.669 28.0366 109.388 28.5979C109.107 29.1591 108.971 29.8039 108.978 30.532C108.978 31.2526 109.119 31.8936 109.399 32.4549C109.688 33.0086 110.082 33.441 110.583 33.752C111.091 34.0554 111.675 34.2071 112.335 34.2071ZM122.313 24.2516H118.854L122.598 36.79H125.624L128.086 28.7817L130.744 36.79H133.725L137.48 24.2516H134.351L132.221 32.056L129.867 24.2516H126.841L124.499 32.2278L122.313 24.2516Z" fill="black"/>
<path d="M38.5702 16.7734L27.0607 39.2734H16.25L21.0667 29.9484H20.8506C16.8769 35.1069 10.9479 38.5028 2.5 39.2734V30.0776C2.5 30.0776 7.90431 29.7583 11.0814 26.4181H2.5V16.7736H12.1445V24.7061L12.361 24.7052L16.3021 16.7736H23.596V24.6558L23.8124 24.6554L27.9014 16.7734H38.5702ZM101.333 36.7899H104.439V18.9609H101.333V36.7899ZM84.2092 36.6079C84.8842 36.8885 85.5707 37.0289 86.2686 37.0289C87.4214 37.0289 88.4531 36.7483 89.3633 36.1869C90.2734 35.6256 90.9789 34.852 91.4796 33.8659C91.9802 32.8723 92.2304 31.7458 92.2304 30.4866C92.2304 29.2275 91.9726 28.1011 91.4568 27.1075C90.9409 26.1138 90.2242 25.3439 89.3063 24.7978C88.3886 24.2441 87.3456 23.971 86.1774 23.9786C85.4342 23.9786 84.7212 24.1227 84.0384 24.411C83.3558 24.6992 82.7869 25.1088 82.3318 25.6398C82.2967 25.6802 82.2626 25.721 82.2294 25.7622V18.9724H79.1119V36.79H82.2067L82.2004 35.1255C82.2804 35.2236 82.3661 35.3195 82.4569 35.4133C82.9499 35.9215 83.5341 36.3196 84.2092 36.6079ZM87.3949 33.7294C86.8867 34.0404 86.3064 34.1959 85.6541 34.1959C85.0093 34.1959 84.4177 34.0365 83.8792 33.718C83.3406 33.3918 82.9121 32.9481 82.5934 32.3868C82.2824 31.8255 82.1269 31.1883 82.1269 30.4753C82.1194 29.7623 82.2711 29.1251 82.5821 28.5638C82.9007 27.995 83.3292 27.555 83.8678 27.244C84.4063 26.9254 85.0018 26.7699 85.6541 26.7775C86.3064 26.7699 86.8867 26.9216 87.3949 27.2326C87.9107 27.536 88.3051 27.9722 88.5782 28.5411C88.8588 29.1024 88.9992 29.7471 88.9992 30.4753C88.9992 31.2035 88.8588 31.8483 88.5782 32.4095C88.3051 32.9709 87.9107 33.4108 87.3949 33.7294ZM43.0701 20.0419H46.6199L49.7954 31.6389L53.1736 20.0419H56.1318L59.7954 31.4061L62.8447 20.0419H66.0987L61.2973 36.79H58.2367L54.5112 25.688L51.0914 36.79H47.9967L43.0701 20.0419ZM71.3413 37.0857C70.1048 37.0933 68.9898 36.8202 67.9962 36.2666C67.01 35.7052 66.2327 34.9277 65.6637 33.9341C65.1024 32.9405 64.8218 31.8065 64.8218 30.5321C64.8218 29.2957 65.11 28.1769 65.6865 27.1757C66.2629 26.1745 67.0441 25.3932 68.0303 24.8319C69.0164 24.2706 70.1162 23.9899 71.3298 23.9899C72.6952 23.9899 73.8898 24.2933 74.9138 24.9001C75.9454 25.507 76.7153 26.3679 77.2235 27.4829C77.7393 28.5903 77.9252 29.8608 77.781 31.2945H68.0352C68.0624 31.8656 68.2049 32.3852 68.4627 32.8532C68.7509 33.369 69.1529 33.771 69.6686 34.0592C70.1845 34.3475 70.7609 34.4916 71.3982 34.4916C71.8835 34.484 72.3349 34.4006 72.752 34.2413C73.1693 34.0745 73.5219 33.8507 73.8102 33.57C74.106 33.2893 74.3147 32.9708 74.436 32.6143H77.69C77.4928 33.4866 77.0984 34.2641 76.5068 34.9467C75.915 35.6218 75.1718 36.149 74.2766 36.5282C73.3816 36.9075 72.4032 37.0933 71.3413 37.0857ZM68.474 28.1656C68.2923 28.4825 68.1663 28.8238 68.0962 29.1896H74.5565C74.5097 28.7276 74.367 28.3066 74.1288 27.9266C73.8557 27.4791 73.484 27.134 73.0138 26.8913C72.5435 26.6409 72.0125 26.5158 71.4209 26.5158C70.7913 26.5158 70.2186 26.6599 69.7028 26.9481C69.187 27.2364 68.7774 27.6422 68.474 28.1656ZM94.5178 24.2516C94.5178 23.2352 94.749 22.3326 95.2118 21.5437C95.6744 20.7473 96.323 20.1291 97.1574 19.6892C97.9993 19.2416 98.9816 19.0103 100.104 18.9951V21.7599C99.5808 21.7675 99.1333 21.8775 98.7616 22.0899C98.3975 22.2947 98.1169 22.5943 97.9196 22.9887C97.7381 23.3518 97.6401 23.7728 97.6258 24.2516H100.036V26.8799H97.6239V36.79H94.5178V26.8799H92.5153V24.2516H94.5178ZM112.335 37.0629C111.068 37.0629 109.934 36.786 108.933 36.2324C107.939 35.671 107.158 34.8974 106.589 33.9113C106.028 32.9176 105.747 31.7913 105.747 30.532C105.747 29.2654 106.028 28.1352 106.589 27.1415C107.158 26.1403 107.939 25.3628 108.933 24.8091C109.934 24.2553 111.068 23.9785 112.335 23.9785C113.609 23.9785 114.747 24.2553 115.748 24.8091C116.757 25.3628 117.542 26.1365 118.103 27.1301C118.665 28.1238 118.949 29.2578 118.957 30.532C118.949 31.7913 118.665 32.9176 118.103 33.9113C117.55 34.8974 116.768 35.671 115.759 36.2324C114.751 36.786 113.609 37.0629 112.335 37.0629ZM112.335 34.2071C113.002 34.2071 113.594 34.0554 114.11 33.752C114.626 33.441 115.024 33.0086 115.304 32.4549C115.585 31.8936 115.725 31.2526 115.725 30.532C115.725 29.8039 115.585 29.1591 115.304 28.5979C115.024 28.0366 114.626 27.6042 114.11 27.3008C113.594 26.9898 113.002 26.8343 112.335 26.8343C111.675 26.8343 111.087 26.9898 110.571 27.3008C110.063 27.6042 109.669 28.0366 109.388 28.5979C109.107 29.1591 108.971 29.8039 108.978 30.532C108.978 31.2526 109.119 31.8936 109.399 32.4549C109.688 33.0086 110.082 33.441 110.583 33.752C111.091 34.0554 111.675 34.2071 112.335 34.2071ZM122.313 24.2516H118.854L122.598 36.79H125.624L128.086 28.7817L130.744 36.79H133.725L137.48 24.2516H134.351L132.221 32.056L129.867 24.2516H126.841L124.499 32.2278L122.313 24.2516Z" fill="black"/>
</svg>
