<svg width="33" height="33" viewBox="0 0 33 33" fill="none" xmlns="http://www.w3.org/2000/svg">
<path d="M26.0065 15.9844V16.651C26.0065 17.0192 25.7081 17.3177 25.3399 17.3177H17.6732V24.9844C17.6732 25.3525 17.3747 25.651 17.0065 25.651H16.3399C15.9717 25.651 15.6732 25.3525 15.6732 24.9844V17.3177H8.00651C7.63832 17.3177 7.33984 17.0192 7.33984 16.651V15.9844C7.33984 15.6162 7.63832 15.3177 8.00651 15.3177H15.6732V7.65104C15.6732 7.28285 15.9717 6.98438 16.3399 6.98438H17.0065C17.3747 6.98438 17.6732 7.28285 17.6732 7.65104V15.3177H25.3399C25.7081 15.3177 26.0065 15.6162 26.0065 15.9844Z" fill="black"/>
</svg>
