<svg width="20" height="20" viewBox="0 0 20 20" fill="none" xmlns="http://www.w3.org/2000/svg">
<path d="M9.07088 1.24516C9.41462 0.428697 10.5854 0.428698 10.9291 1.24516L12.9579 6.06405C13.1029 6.40825 13.4306 6.64342 13.8067 6.67321L19.0727 7.09029C19.9649 7.16096 20.3267 8.26095 19.6469 8.83621L15.6348 12.2315C15.3482 12.474 15.223 12.8546 15.3106 13.2171L16.5363 18.2938C16.744 19.1539 15.7969 19.8338 15.033 19.3729L10.5245 16.6524C10.2025 16.458 9.7975 16.458 9.47548 16.6524L4.96699 19.3729C4.20311 19.8338 3.25596 19.1539 3.46363 18.2938L4.68942 13.2171C4.77698 12.8546 4.65182 12.474 4.36526 12.2315L0.353062 8.83621C-0.326718 8.26095 0.0350679 7.16096 0.927291 7.09029L6.19336 6.67321C6.5695 6.64342 6.89716 6.40825 7.04207 6.06405L9.07088 1.24516Z" fill="black"/>
</svg>
